<svg xmlns="http://www.w3.org/2000/svg" viewBox="0 0 1200 630">
  <defs>
    <linearGradient id="bg34" x1="0" y1="0" x2="1" y2="1">
      <stop offset="0%" stop-color="#0a0a12"/>
      <stop offset="100%" stop-color="#0c0c14"/>
    </linearGradient>
  </defs>
  <rect width="1200" height="630" fill="url(#bg34)"/>
  <!-- Blueprint document -->
  <rect x="300" y="50" width="600" height="530" rx="12" fill="#0f1a2e" stroke="#3b82f6" stroke-width="2"/>
  <!-- Blueprint grid pattern -->
  <line x1="300" y1="120" x2="900" y2="120" stroke="#1d4ed8" stroke-width="0.5" opacity="0.2"/>
  <line x1="300" y1="190" x2="900" y2="190" stroke="#1d4ed8" stroke-width="0.5" opacity="0.2"/>
  <line x1="300" y1="260" x2="900" y2="260" stroke="#1d4ed8" stroke-width="0.5" opacity="0.2"/>
  <line x1="300" y1="330" x2="900" y2="330" stroke="#1d4ed8" stroke-width="0.5" opacity="0.2"/>
  <line x1="300" y1="400" x2="900" y2="400" stroke="#1d4ed8" stroke-width="0.5" opacity="0.2"/>
  <line x1="300" y1="470" x2="900" y2="470" stroke="#1d4ed8" stroke-width="0.5" opacity="0.2"/>
  <line x1="400" y1="50" x2="400" y2="580" stroke="#1d4ed8" stroke-width="0.5" opacity="0.2"/>
  <line x1="500" y1="50" x2="500" y2="580" stroke="#1d4ed8" stroke-width="0.5" opacity="0.2"/>
  <line x1="600" y1="50" x2="600" y2="580" stroke="#1d4ed8" stroke-width="0.5" opacity="0.2"/>
  <line x1="700" y1="50" x2="700" y2="580" stroke="#1d4ed8" stroke-width="0.5" opacity="0.2"/>
  <line x1="800" y1="50" x2="800" y2="580" stroke="#1d4ed8" stroke-width="0.5" opacity="0.2"/>
  <!-- Plan sections -->
  <!-- Title area -->
  <rect x="350" y="70" width="500" height="35" rx="6" fill="#3b82f6" opacity="0.2"/>
  <rect x="370" y="78" width="460" height="18" rx="4" fill="#3b82f6" opacity="0.15"/>
  <!-- Section blocks -->
  <rect x="340" y="140" width="220" height="100" rx="8" fill="#111133" stroke="#1d4ed8" stroke-width="1"/>
  <rect x="360" y="155" width="140" height="10" rx="3" fill="#3b82f6" opacity="0.3"/>
  <rect x="360" y="175" width="180" height="6" rx="2" fill="#1e3a5f"/>
  <rect x="360" y="190" width="150" height="6" rx="2" fill="#1e3a5f" opacity="0.7"/>
  <rect x="360" y="205" width="170" height="6" rx="2" fill="#1e3a5f" opacity="0.5"/>
  <rect x="640" y="140" width="220" height="100" rx="8" fill="#111133" stroke="#1d4ed8" stroke-width="1"/>
  <rect x="660" y="155" width="140" height="10" rx="3" fill="#3b82f6" opacity="0.3"/>
  <rect x="660" y="175" width="180" height="6" rx="2" fill="#1e3a5f"/>
  <rect x="660" y="190" width="150" height="6" rx="2" fill="#1e3a5f" opacity="0.7"/>
  <rect x="660" y="205" width="170" height="6" rx="2" fill="#1e3a5f" opacity="0.5"/>
  <!-- Connection lines between sections -->
  <line x1="560" y1="190" x2="640" y2="190" stroke="#3b82f6" stroke-width="1" stroke-dasharray="4,3"/>
  <!-- Lower sections -->
  <rect x="340" y="280" width="520" height="80" rx="8" fill="#111133" stroke="#1d4ed8" stroke-width="1"/>
  <rect x="360" y="295" width="200" height="10" rx="3" fill="#3b82f6" opacity="0.25"/>
  <rect x="360" y="315" width="480" height="6" rx="2" fill="#1e3a5f"/>
  <rect x="360" y="330" width="400" height="6" rx="2" fill="#1e3a5f" opacity="0.7"/>
  <!-- Flowchart element -->
  <rect x="340" y="400" width="160" height="60" rx="30" fill="#111133" stroke="#3b82f6" stroke-width="1.5"/>
  <rect x="540" y="400" width="160" height="60" rx="30" fill="#111133" stroke="#3b82f6" stroke-width="1.5"/>
  <rect x="740" y="400" width="120" height="60" rx="30" fill="#111133" stroke="#60a5fa" stroke-width="2"/>
  <line x1="500" y1="430" x2="540" y2="430" stroke="#3b82f6" stroke-width="1.5"/>
  <line x1="700" y1="430" x2="740" y2="430" stroke="#3b82f6" stroke-width="1.5"/>
  <polygon points="535,425 545,430 535,435" fill="#3b82f6"/>
  <polygon points="735,425 745,430 735,435" fill="#3b82f6"/>
  <!-- Checkmark for completion -->
  <circle cx="800" cy="430" r="12" fill="#1d4ed8" opacity="0.4"/>
  <polyline points="794,430 798,436 810,422" fill="none" stroke="#60a5fa" stroke-width="2" stroke-linecap="round" stroke-linejoin="round"/>
  <!-- Corner markers -->
  <line x1="310" y1="60" x2="310" y2="80" stroke="#3b82f6" stroke-width="1.5"/>
  <line x1="310" y1="60" x2="330" y2="60" stroke="#3b82f6" stroke-width="1.5"/>
  <line x1="890" y1="60" x2="890" y2="80" stroke="#3b82f6" stroke-width="1.5"/>
  <line x1="890" y1="60" x2="870" y2="60" stroke="#3b82f6" stroke-width="1.5"/>
  <line x1="310" y1="570" x2="310" y2="550" stroke="#3b82f6" stroke-width="1.5"/>
  <line x1="310" y1="570" x2="330" y2="570" stroke="#3b82f6" stroke-width="1.5"/>
  <line x1="890" y1="570" x2="890" y2="550" stroke="#3b82f6" stroke-width="1.5"/>
  <line x1="890" y1="570" x2="870" y2="570" stroke="#3b82f6" stroke-width="1.5"/>
</svg>