<svg xmlns="http://www.w3.org/2000/svg" viewBox="0 0 1200 630">
  <defs>
    <linearGradient id="bg35" x1="0" y1="0" x2="1" y2="1">
      <stop offset="0%" stop-color="#0a0a12"/>
      <stop offset="100%" stop-color="#0c0c14"/>
    </linearGradient>
  </defs>
  <rect width="1200" height="630" fill="url(#bg35)"/>
  <!-- Roadmap path -->
  <path d="M100,500 Q200,480 300,450 Q400,420 450,380 Q500,340 550,300 Q600,260 650,230 Q700,200 750,180 Q800,160 850,150 Q950,130 1100,100" fill="none" stroke="#3b82f6" stroke-width="3"/>
  <path d="M100,500 Q200,480 300,450 Q400,420 450,380 Q500,340 550,300 Q600,260 650,230 Q700,200 750,180 Q800,160 850,150 Q950,130 1100,100" fill="none" stroke="#1d4ed8" stroke-width="1" stroke-dasharray="10,5" opacity="0.3"/>
  <!-- Milestone stops -->
  <circle cx="150" cy="490" r="18" fill="#111133" stroke="#1e3a5f" stroke-width="2"/>
  <circle cx="150" cy="490" r="8" fill="#1d4ed8" opacity="0.5"/>
  <circle cx="350" cy="430" r="18" fill="#111133" stroke="#1e3a5f" stroke-width="2"/>
  <circle cx="350" cy="430" r="8" fill="#1d4ed8" opacity="0.6"/>
  <circle cx="500" cy="340" r="18" fill="#111133" stroke="#3b82f6" stroke-width="2"/>
  <circle cx="500" cy="340" r="8" fill="#3b82f6" opacity="0.6"/>
  <circle cx="650" cy="230" r="18" fill="#111144" stroke="#3b82f6" stroke-width="2"/>
  <circle cx="650" cy="230" r="8" fill="#3b82f6" opacity="0.7"/>
  <circle cx="800" cy="160" r="18" fill="#111144" stroke="#60a5fa" stroke-width="2"/>
  <circle cx="800" cy="160" r="8" fill="#60a5fa" opacity="0.7"/>
  <!-- Final destination -->
  <circle cx="1100" cy="100" r="30" fill="#0f1a2e" stroke="#60a5fa" stroke-width="3"/>
  <circle cx="1100" cy="100" r="20" fill="#3b82f6" opacity="0.4"/>
  <polyline points="1092,100 1098,110 1112,90" fill="none" stroke="#fff" stroke-width="2.5" stroke-linecap="round" stroke-linejoin="round"/>
  <!-- Glow at destination -->
  <circle cx="1100" cy="100" r="50" fill="#3b82f6" opacity="0.05"/>
  <!-- Side decorations -->
  <rect x="180" y="430" width="80" height="6" rx="3" fill="#1e3a5f" opacity="0.4"/>
  <rect x="380" y="370" width="80" height="6" rx="3" fill="#1e3a5f" opacity="0.4"/>
  <rect x="530" y="280" width="80" height="6" rx="3" fill="#1e3a5f" opacity="0.4"/>
  <rect x="680" y="170" width="80" height="6" rx="3" fill="#1d4ed8" opacity="0.4"/>
  <rect x="830" y="110" width="80" height="6" rx="3" fill="#1d4ed8" opacity="0.4"/>
  <!-- Bottom accent -->
  <line x1="50" y1="560" x2="1150" y2="560" stroke="#1e293b" stroke-width="1"/>
</svg>